<?xml version="1.0" encoding="utf-8"?>
<!-- Generator: Adobe Illustrator 22.0.1, SVG Export Plug-In . SVG Version: 6.00 Build 0)  -->
<svg version="1.1" id="Layer_1" xmlns="http://www.w3.org/2000/svg" xmlns:xlink="http://www.w3.org/1999/xlink" x="0px" y="0px"
	 viewBox="0 0 276.4 99.4" style="enable-background:new 0 0 276.4 99.4;" xml:space="preserve">
<style type="text/css">
	.st0{clip-path:url(#SVGID_10_);fill:#1F9CD8;}
	.st1{clip-path:url(#SVGID_12_);fill:#FFFFFF;}
	.st2{clip-path:url(#SVGID_14_);fill:#FFFFFF;}
	.st3{clip-path:url(#SVGID_16_);}
	.st4{fill:#1F9CD8;}
	.st5{font-family:'FiraSans-Bold';}
	.st6{font-size:26.2312px;}
</style>
<g>
	
		<image style="overflow:visible;opacity:0.35;" width="272" height="103" xlink:href="B574C61B5E88CF5.png"  transform="matrix(1 0 0 1 -2 -2.6)">
	</image>
	<g>
		<g>
			<g>
				<g>
					<defs>
						<rect id="SVGID_1_" width="265.6" height="95.6"/>
					</defs>
					<clipPath id="SVGID_2_">
						<use xlink:href="#SVGID_1_"  style="overflow:visible;"/>
					</clipPath>
				</g>
			</g>
			<g>
				<g>
					<defs>
						<rect id="SVGID_3_" width="265.6" height="95.6"/>
					</defs>
					<clipPath id="SVGID_4_">
						<use xlink:href="#SVGID_3_"  style="overflow:visible;"/>
					</clipPath>
				</g>
			</g>
			<g>
				<g>
					<defs>
						<rect id="SVGID_5_" width="265.6" height="95.6"/>
					</defs>
					<clipPath id="SVGID_6_">
						<use xlink:href="#SVGID_5_"  style="overflow:visible;"/>
					</clipPath>
				</g>
			</g>
			<g>
				<g>
					<defs>
						<rect id="SVGID_7_" width="265.6" height="95.6"/>
					</defs>
					<clipPath id="SVGID_8_">
						<use xlink:href="#SVGID_7_"  style="overflow:visible;"/>
					</clipPath>
				</g>
			</g>
		</g>
		<g>
			<g>
				<g>
					<defs>
						<rect id="SVGID_9_" width="265.6" height="95.6"/>
					</defs>
					<clipPath id="SVGID_10_">
						<use xlink:href="#SVGID_9_"  style="overflow:visible;"/>
					</clipPath>
					<path class="st0" d="M131.9,85.3c0,5.2-4.2,9.4-9.4,9.4H9.8c-5.2,0-9.4-4.2-9.4-9.4V10.2c0-5.2,4.2-9.4,9.4-9.4h112.7
						c5.2,0,9.4,4.2,9.4,9.4L131.9,85.3L131.9,85.3z"/>
				</g>
			</g>
			<g>
				<g>
					<defs>
						<rect id="SVGID_11_" width="265.6" height="95.6"/>
					</defs>
					<clipPath id="SVGID_12_">
						<use xlink:href="#SVGID_11_"  style="overflow:visible;"/>
					</clipPath>
					<path class="st1" d="M254,0.8L254,0.8H141.3c-5.2,0-9.4,4.2-9.4,9.4v75.1c0,5.2,4.2,9.4,9.4,9.4H254c5.2,0,9.4-4.2,9.4-9.4
						V10.2C263.3,5,259.2,0.8,254,0.8z"/>
				</g>
			</g>
			<g>
				<g>
					<defs>
						<rect id="SVGID_13_" width="265.6" height="95.6"/>
					</defs>
					<clipPath id="SVGID_14_">
						<use xlink:href="#SVGID_13_"  style="overflow:visible;"/>
					</clipPath>
					<path class="st2" d="M18.4,63.8c0-0.6,0.1-1,0.4-1.2c0.5-0.8,1.7-1.1,4-1.4c0,0,3.6-0.6,4.6-0.8c0.4,1.2,0.8,2.5,1,3.7
						c0.2,0.9,0.2,1.6,0.2,2.1c-0.1,1.8-1.2,2.1-4.4,2.7c-4.2,0.8-4.8,0.9-5.6-3.1C18.5,65,18.4,64.3,18.4,63.8 M21.9,55.9
						c-5.2,0.9-7.9,2-9.2,3.9c-0.7,1-1.1,2-1.1,3.5c0,1.1,0.1,2.2,0.3,3.7c0.8,4.2,1.6,5.7,4.3,6.7l0,0h0.1l-0.1,0.1l-2.3,3.4
						l0.1,0.7l0.1,0.5c0.3,1.4,0.9,2.5,1.8,3.2c1.8,1.2,4.4,0.8,6.5,0.4l7.5-1.3l2.1-0.3c1.2-0.1,1.4,0,1.7,1.3
						c0.2,1,0.1,1.2-1.2,1.7c-1.2,0.5-4.2,1.2-5.9,1.4c-2.2,0.4-5.5,0.7-9.2,0.9l-1.2,0.1l0.2,0.9l0.3,4.2v0.4h0.8
						c0.2,0,4.9,0,10.1-0.9c10.8-1.9,13.4-4,12.4-9.9c-1.2-6.3-4.1-6.9-10.5-5.8l-6.4,1.2c-1.2,0.2-2.7,0.5-3,0.2
						c-0.1-0.1-0.2-0.4-0.3-0.8c-0.1-0.3-0.1-0.6-0.1-0.9c1,0,2.5,0,4.8-0.4c8.1-1.4,11.6-3.4,10.4-10.6l-0.3-1.2v-0.1V62l-3.5-2.5
						c0,0,0,0-0.1,0c0.4-0.1,6.1-1.3,6.1-1.3l-0.9-4.7L21.9,55.9z M46.4,59.4c0.1-1.9,1.2-2.4,5.3-3.2s5-0.5,5.8,3.6
						c-2.2,0.6-4.7,1-5.3,1.1H52c-0.5,0.1-3.2,0.7-5.7,0.8C46.4,60.8,46.4,60,46.4,59.4 M50.5,50.9c-5.4,1-9.1,2.4-10.3,6.6l0,0
						c-0.5,2-0.5,5,0.1,8.1c1.8,10.5,7,11.7,15.3,10.3c5.3-1,9.1-2.9,9.2-3l0.7-0.4l-1.8-4.9L62.6,68c-2.5,1-4.7,1.7-7.5,2.2
						c-1.9,0.3-4.5,0.8-6-0.4c-0.9-0.7-1.4-2-1.7-3.6l-0.4-1c0-0.1,0-0.1,0-0.2V65h0.1c0.2,0,0.2,0,0.5,0.1l2.6,1.2h0.2
						c0.1,0,1.8,0,5.4-0.7c2.5-0.5,4.7-1,6.3-1.4l2.8-0.7l-0.1-0.8v-0.2c-0.2-1.5-0.3-2.3-0.4-3.2C62.9,51.3,59.6,49.3,50.5,50.9
						 M81.4,45.4c-1,0.2-2.9,0.7-3,0.8l-0.2,0.1l-2.9,2.9c-0.3,0.2-0.5,0.4-0.8,0.5h-0.1c0,0,0-0.1-0.1-0.2c0,0,0,0,0,0.1
						c0-0.1-0.2-0.6-0.6-2v-0.5l-8.2,1.4l0.8,4.6l3,0.1v0.1l2.5,14.1c0,0,0,0,0,0.1l-2.8,1.1l0.8,4.6l12.2-2.1l-0.8-4.8l-2.9-0.1
						v-0.1c0,0-2-11.3-2.4-13.4c1.9-0.7,3.6-1.2,5.1-1.3c4.1-0.8,4.7-0.4,5.5,3.6l1.7,9.6c0,0,0,0,0,0.1l-2.8,1.1l0.8,4.6l12.2-2.1
						l-0.8-4.6l-2.9-0.1v-0.1l-1.7-10c-0.7-3.8-1.6-6-3.4-7.1C88,44.9,85.5,44.8,81.4,45.4 M97.7,36.6c0,0,1,5.4,1.1,6.1
						c-0.7,0.1-4.6,0.8-4.6,0.8l1,5.4c0,0,3.8-0.7,4.6-0.8c0.1,0.8,1.9,10.9,1.9,10.9c1.1,5.8,2.6,8.2,9,7.1c2.7-0.5,4.9-1.5,5-1.6
						l0.7-0.3l-1.5-4.8l-0.9,0.3c-1.1,0.4-2.3,0.8-3,1c-1.2,0.2-1.7,0.2-2,0c-0.3-0.2-0.5-0.9-0.7-2l-2.1-12.1l-0.2-1.4l0,0
						c0-0.1,0-0.1,0-0.2v-0.1h0.1c0.2,0,0.2,0,0.5,0.1L109,46h0.1l0,0c0.3,0.2,1,0.2,3.6-0.3l0.5-0.1l-1-5.4c0,0-6.1,1.1-6.8,1.2
						c-0.1-0.8-1.1-6.1-1.1-6.1L97.7,36.6z M120.7,38.7c-1.1,0-2.1,0.4-2.9,1.2c-0.8,0.8-1.2,1.8-1.2,2.9c0,1.1,0.4,2.1,1.2,2.9
						c0.8,0.8,1.8,1.2,2.9,1.2s2.1-0.4,2.9-1.2c0.8-0.8,1.2-1.8,1.2-2.9C124.8,40.5,122.9,38.7,120.7,38.7 M123.6,55.2
						c-1.1,0-2.1,0.4-2.9,1.2c-0.8,0.8-1.2,1.8-1.2,2.9s0.4,2.1,1.2,2.9c0.8,0.8,1.8,1.2,2.9,1.2c2.3,0,4.1-1.8,4.1-4.1
						C127.7,57,125.9,55.2,123.6,55.2"/>
				</g>
			</g>
			<g>
				<g>
					<defs>
						<rect id="SVGID_15_" width="265.6" height="95.6"/>
					</defs>
					<clipPath id="SVGID_16_">
						<use xlink:href="#SVGID_15_"  style="overflow:visible;"/>
					</clipPath>
					<g class="st3">
						<text transform="matrix(0.9789 -0.2043 0.2043 0.9789 148.2586 67.8159)" class="st4 st5 st6">skosmos</text>
					</g>
				</g>
			</g>
		</g>
		<g>
			<g>
				<g>
					<defs>
						<rect id="SVGID_17_" width="265.6" height="95.6"/>
					</defs>
					<clipPath id="SVGID_18_">
						<use xlink:href="#SVGID_17_"  style="overflow:visible;"/>
					</clipPath>
				</g>
			</g>
			<g>
				<g>
					<defs>
						<rect id="SVGID_19_" width="265.6" height="95.6"/>
					</defs>
					<clipPath id="SVGID_20_">
						<use xlink:href="#SVGID_19_"  style="overflow:visible;"/>
					</clipPath>
				</g>
			</g>
			<g>
				<g>
					<defs>
						<rect id="SVGID_21_" width="265.6" height="95.6"/>
					</defs>
					<clipPath id="SVGID_22_">
						<use xlink:href="#SVGID_21_"  style="overflow:visible;"/>
					</clipPath>
				</g>
			</g>
			<g>
				<g>
					<defs>
						<rect id="SVGID_23_" width="265.6" height="95.6"/>
					</defs>
					<clipPath id="SVGID_24_">
						<use xlink:href="#SVGID_23_"  style="overflow:visible;"/>
					</clipPath>
				</g>
			</g>
		</g>
	</g>
</g>
</svg>
