<?xml version="1.0" encoding="utf-8"?>
<!-- Generator: Adobe Illustrator 22.0.1, SVG Export Plug-In . SVG Version: 6.00 Build 0)  -->
<svg version="1.1" id="Layer_1" xmlns="http://www.w3.org/2000/svg" xmlns:xlink="http://www.w3.org/1999/xlink" x="0px" y="0px"
	 viewBox="0 0 276.4 99.4" style="enable-background:new 0 0 276.4 99.4;" xml:space="preserve">
<style type="text/css">
	.st0{clip-path:url(#SVGID_2_);fill:#FFFFFF;}
	.st1{clip-path:url(#SVGID_4_);fill:#1F9CD8;}
	.st2{clip-path:url(#SVGID_6_);fill:#1F9CD8;}
	.st3{clip-path:url(#SVGID_8_);fill:#FFFFFF;}
	.st4{clip-path:url(#SVGID_10_);}
	.st5{fill:#1F9CD8;}
	.st6{font-family:'FiraSans-Bold';}
	.st7{font-size:27.3152px;}
</style>
<g>
	<g>
		<defs>
			<rect id="SVGID_1_" width="276.6" height="99.6"/>
		</defs>
		<clipPath id="SVGID_2_">
			<use xlink:href="#SVGID_1_"  style="overflow:visible;"/>
		</clipPath>
		<path class="st0" d="M264.5,0.8H147.1c-5.4,0-9.8,4.4-9.8,9.8v78.2c0,5.4,4.4,9.8,9.8,9.8h117.4c5.4,0,9.8-4.4,9.8-9.8V10.6
			C274.2,5.2,269.9,0.8,264.5,0.8"/>
	</g>
	<g>
		<defs>
			<rect id="SVGID_3_" width="276.6" height="99.6"/>
		</defs>
		<clipPath id="SVGID_4_">
			<use xlink:href="#SVGID_3_"  style="overflow:visible;"/>
		</clipPath>
		<path class="st1" d="M137.3,88.8c0,5.4-4.4,9.8-9.8,9.8H10.2c-5.4,0-9.8-4.4-9.8-9.8V10.6c0-5.4,4.4-9.8,9.8-9.8h117.4
			c5.4,0,9.8,4.4,9.8,9.8L137.3,88.8L137.3,88.8z"/>
	</g>
	<g>
		<defs>
			<rect id="SVGID_5_" width="276.6" height="99.6"/>
		</defs>
		<clipPath id="SVGID_6_">
			<use xlink:href="#SVGID_5_"  style="overflow:visible;"/>
		</clipPath>
		<path class="st2" d="M264.4,2.2c4.6,0,8.4,3.8,8.4,8.4v78.2c0,4.6-3.8,8.4-8.4,8.4H147.1c-4.6,0-8.4-3.8-8.4-8.4V10.6
			c0-4.6,3.8-8.4,8.4-8.4L264.4,2.2 M264.4,0.8H147.1c-5.4,0-9.8,4.4-9.8,9.8v78.2c0,5.4,4.4,9.8,9.8,9.8h117.4
			c5.4,0,9.8-4.4,9.8-9.8V10.6C274.2,5.2,269.8,0.8,264.4,0.8"/>
	</g>
	<g>
		<defs>
			<rect id="SVGID_7_" width="276.6" height="99.6"/>
		</defs>
		<clipPath id="SVGID_8_">
			<use xlink:href="#SVGID_7_"  style="overflow:visible;"/>
		</clipPath>
		<path class="st3" d="M19.2,66.4c0-0.6,0.1-1,0.4-1.3c0.5-0.8,1.8-1.1,4.2-1.5c0,0,3.7-0.6,4.8-0.8c0.4,1.2,0.8,2.6,1,3.9
			c0.2,0.9,0.2,1.7,0.2,2.2c-0.1,1.9-1.3,2.2-4.6,2.8c-4.4,0.8-5,0.9-5.8-3.2C19.3,67.7,19.2,67,19.2,66.4 M22.8,58.2
			c-5.4,0.9-8.2,2.1-9.6,4.1c-0.7,1-1.1,2.1-1.1,3.6c0,1.1,0.1,2.3,0.3,3.9c0.8,4.4,1.7,5.9,4.5,7l0,0H17l-0.1,0.1l-2.4,3.5l0.1,0.7
			l0.1,0.5c0.3,1.5,0.9,2.6,1.9,3.3c1.9,1.3,4.6,0.8,6.8,0.4l7.8-1.4l2.2-0.3c1.3-0.1,1.5,0,1.8,1.4c0.2,1,0.1,1.3-1.2,1.8
			c-1.2,0.5-4.4,1.2-6.1,1.5c-2.3,0.4-5.7,0.7-9.6,0.9l-1.2,0.1l0.2,0.9l0.3,4.4V95h0.8c0.2,0,5.1,0,10.5-0.9
			c11.2-2,14-4.2,12.9-10.3c-1.2-6.6-4.3-7.2-10.9-6L24.2,79c-1.3,0.2-2.8,0.5-3.1,0.2c-0.1-0.1-0.2-0.4-0.3-0.8
			c-0.1-0.3-0.1-0.6-0.1-0.9c1,0,2.6,0,5-0.4c8.4-1.5,12.1-3.5,10.8-11l-0.3-1.3v-0.1v-0.1L32.6,62c0,0,0,0-0.1,0
			c0.4-0.1,6.4-1.4,6.4-1.4L38,55.7L22.8,58.2z M48.3,61.9c0.1-2,1.2-2.5,5.5-3.3s5.2-0.5,6,3.7c-2.3,0.6-4.9,1-5.5,1.1h-0.1
			c-0.5,0.1-3.3,0.7-5.9,0.8C48.3,63.3,48.3,62.5,48.3,61.9 M52.6,53c-5.6,1-9.5,2.5-10.7,6.9l0,0c-0.5,2.1-0.5,5.2,0.1,8.4
			c1.9,10.9,7.3,12.2,15.9,10.7c5.5-1,9.5-3,9.6-3.1l0.7-0.4l-1.9-5.1l-1.1,0.4c-2.6,1-4.9,1.8-7.8,2.3c-2,0.3-4.7,0.8-6.2-0.4
			c-0.9-0.7-1.5-2.1-1.8-3.7L49,68c0-0.1,0-0.1,0-0.2v-0.1h0.1c0.2,0,0.2,0,0.5,0.1l2.7,1.2h0.2c0.1,0,1.9,0,5.6-0.7
			c2.6-0.5,4.9-1,6.6-1.5l2.9-0.7l-0.1-0.8v-0.2c-0.2-1.6-0.3-2.4-0.4-3.3C65.5,53.4,62.1,51.3,52.6,53 M84.8,47.3
			c-1,0.2-3,0.7-3.1,0.8l-0.2,0.1l-3,3c-0.3,0.2-0.5,0.4-0.8,0.5h-0.1c0,0,0-0.1-0.1-0.2c0,0,0,0,0,0.1c0-0.1-0.2-0.6-0.6-2.1l0-0.5
			l-8.5,1.5l0.8,4.8l3.1,0.1v0.1l2.6,14.7c0,0,0,0,0,0.1L72,71.4l0.8,4.8L85.5,74l-0.8-5l-3-0.1v-0.1c0,0-2.1-11.8-2.5-14
			c2-0.7,3.7-1.2,5.3-1.4c4.3-0.8,4.9-0.4,5.7,3.7l1.8,10c0,0,0,0,0,0.1l-2.9,1.1l0.8,4.8l12.7-2.2l-0.8-4.8l-3-0.1v-0.1L97,55.5
			c-0.7-4-1.7-6.2-3.5-7.4C91.6,46.8,89,46.6,84.8,47.3 M101.7,38.1c0,0,1,5.6,1.1,6.3c-0.7,0.1-4.8,0.8-4.8,0.8l1,5.6
			c0,0,4-0.7,4.8-0.8c0.1,0.8,2,11.4,2,11.4c1.1,6,2.7,8.5,9.4,7.4c2.8-0.5,5.1-1.6,5.2-1.7l0.7-0.3l-1.6-5l-0.9,0.3
			c-1.1,0.4-2.4,0.8-3.1,1c-1.2,0.2-1.8,0.2-2.1,0c-0.3-0.2-0.5-0.9-0.7-2.1l-2.2-12.6l-0.2-1.5l0,0c0-0.1,0-0.1,0-0.2v-0.1h0.1
			c0.2,0,0.2,0,0.5,0.1l2.6,1.2h0.1l0,0c0.3,0.2,1,0.2,3.7-0.3l0.5-0.1l-1-5.6c0,0-6.3,1.1-7.1,1.2c-0.1-0.8-1.1-6.3-1.1-6.3
			L101.7,38.1z M125.7,40.3c-1.1,0-2.2,0.4-3,1.3c-0.8,0.8-1.3,1.9-1.3,3s0.4,2.2,1.3,3c0.8,0.8,1.9,1.3,3,1.3s2.2-0.4,3-1.3
			c0.8-0.8,1.3-1.9,1.3-3C130,42.2,128,40.3,125.7,40.3 M128.7,57.5c-1.1,0-2.2,0.4-3,1.3c-0.8,0.8-1.3,1.9-1.3,3s0.4,2.2,1.3,3
			c0.8,0.8,1.9,1.3,3,1.3c2.4,0,4.3-1.9,4.3-4.3C133,59.4,131.1,57.5,128.7,57.5"/>
	</g>
	<g>
		<defs>
			<rect id="SVGID_9_" width="276.6" height="99.6"/>
		</defs>
		<clipPath id="SVGID_10_">
			<use xlink:href="#SVGID_9_"  style="overflow:visible;"/>
		</clipPath>
		<g class="st4">
			<text transform="matrix(0.9789 -0.2043 0.2043 0.9789 154.3837 70.618)" class="st5 st6 st7">skosmos</text>
		</g>
	</g>
</g>
</svg>
